<svg version="1.1" id="Layer_1" xmlns="http://www.w3.org/2000/svg" xmlns:xlink="http://www.w3.org/1999/xlink" x="0px" y="0px"
	 width="100%" viewBox="0 0 1024 544" enable-background="new 0 0 1024 544" xml:space="preserve">
<path fill="#000000" opacity="1.000000" stroke="none" 
	d="
M348.369904,243.770554 
	C363.289520,244.436584 377.754700,245.069641 392.210236,245.875580 
	C395.401245,246.053497 398.034271,245.249710 400.573761,243.390778 
	C427.991852,223.320618 455.433167,203.282089 482.895386,183.272369 
	C485.352081,181.482391 486.645447,179.363953 486.844574,176.216644 
	C488.041351,157.299728 489.404907,138.393372 490.701263,119.482712 
	C490.882050,116.845818 490.911835,114.183800 492.710449,111.334114 
	C500.472137,113.363884 508.317322,115.364120 516.133789,117.470955 
	C529.790771,121.152023 543.455444,124.809853 557.058228,128.683456 
	C560.252075,129.592957 562.787048,129.169708 565.459106,127.340607 
	C569.442200,124.614075 573.521118,122.004601 577.710693,119.610313 
	C580.730774,117.884377 580.970947,116.041054 579.340637,113.110008 
	C575.942200,107.000099 572.812256,100.739372 569.646851,94.502594 
	C569.020874,93.269165 567.653503,92.140701 568.793945,89.927750 
	C592.729370,108.672729 614.442139,128.907700 625.300415,158.303482 
	C623.449463,159.131470 622.732239,157.653473 621.839233,156.866348 
	C615.342102,151.139999 608.805847,145.452301 602.474731,139.545807 
	C599.347717,136.628555 596.588623,135.868271 592.952515,138.737961 
	C590.094421,140.993668 586.931152,142.990875 583.638123,144.538208 
	C578.347961,147.023956 577.013550,150.923676 577.032349,156.564606 
	C577.097351,176.048203 576.533325,195.533081 576.407776,215.018738 
	C576.379639,219.378265 575.110229,220.395660 570.755005,219.418686 
	C549.649109,214.684174 528.467285,210.288773 507.327545,205.703156 
	C504.736694,205.141144 502.524475,205.256546 500.265686,206.880630 
	C470.786072,228.076416 441.281128,249.237106 411.732300,270.336273 
	C408.442993,272.684998 408.120636,276.233337 407.483551,279.571594 
	C405.332916,290.840271 403.198395,302.122498 401.548004,313.470886 
	C400.910675,317.853455 398.916260,318.534973 395.167755,318.059875 
	C376.864380,315.740173 358.551178,313.494995 340.228546,311.332855 
	C337.046356,310.957336 335.963013,309.736755 336.444427,306.444702 
	C339.306732,286.871155 342.008148,267.274048 344.759796,247.684341 
	C345.031647,245.749039 345.628937,244.094894 348.369904,243.770554 
z"/>
<path fill="#000000" opacity="1.000000" stroke="none" 
	d="
M616.421387,193.468353 
	C615.407715,184.146423 614.490295,175.273636 613.622253,166.878830 
	C615.507812,165.236740 616.756104,165.782898 617.983154,166.315109 
	C627.063721,170.253616 634.895752,175.905716 639.998657,184.467407 
	C651.307068,203.440842 657.131714,224.070511 657.498169,246.192093 
	C657.511108,246.969162 657.209473,247.751419 656.949402,249.059845 
	C651.663574,247.620255 647.479553,244.617142 643.057007,242.165421 
	C630.798523,235.369720 630.769409,235.305969 621.354248,245.339935 
	C606.879517,260.765900 592.617676,276.395599 577.929504,291.614624 
	C574.209900,295.468628 574.214417,299.979614 573.469482,304.430359 
	C572.235840,311.800781 571.147827,319.223877 570.597290,326.669067 
	C570.294983,330.757507 568.749023,331.786713 564.999756,331.321716 
	C552.304871,329.747009 539.555359,328.575714 526.894836,326.772156 
	C515.970398,325.215942 516.111084,324.939148 517.397705,313.860046 
	C518.970947,300.311829 520.399963,286.746338 521.804138,273.179291 
	C522.566589,265.811981 523.582642,264.996002 530.766113,265.887756 
	C540.163513,267.054352 549.588379,267.999207 558.986267,269.162689 
	C561.280640,269.446747 562.816956,268.398315 564.316162,267.031189 
	C581.667480,251.208099 599.003784,235.368515 616.370239,219.562119 
	C618.143677,217.947968 618.632751,216.170425 618.355347,213.771667 
	C617.592041,207.171051 617.110474,200.537827 616.421387,193.468353 
z"/>
<path fill="#000000" opacity="1.000000" stroke="none" 
	d="
M541.810669,65.159882 
	C550.196777,73.648361 556.433411,83.125977 561.053772,93.646141 
	C558.854248,95.664818 557.246216,94.100044 555.684265,93.545578 
	C540.623779,88.199142 525.568054,82.837326 510.562897,77.338264 
	C507.832550,76.337646 505.596619,76.465919 502.999542,77.822807 
	C482.932953,88.307022 462.835602,98.734627 442.643707,108.974533 
	C439.438202,110.600121 437.919983,112.642670 437.514893,116.124306 
	C436.533783,124.556976 435.163086,132.945084 434.229675,141.382156 
	C433.855591,144.763718 432.877136,146.682281 429.067596,146.307465 
	C411.032654,144.533051 392.990021,142.836609 374.948883,141.125397 
	C372.223633,140.866898 371.188568,139.442474 371.578735,136.745667 
	C373.697327,122.103416 375.763275,107.453537 377.877014,92.810570 
	C378.392639,89.238510 381.103516,89.523224 383.629028,89.786163 
	C394.375732,90.904991 405.124786,92.012024 415.852173,93.297081 
	C418.113678,93.567986 420.104462,93.342873 422.138977,92.431419 
	C444.017029,82.630371 465.893890,72.826363 487.808502,63.107643 
	C490.306183,61.999981 490.842255,60.533348 490.214325,57.992035 
	C488.592041,51.426525 487.178436,44.809460 486.273712,37.480915 
	C505.774780,44.671402 524.738281,52.569542 541.810669,65.159882 
z"/>
<path fill="#000000" opacity="1.000000" stroke="none" 
	d="
M146.076309,535.226318 
	C143.922607,535.220642 142.254822,535.163513 140.591217,535.223145 
	C138.064697,535.313660 136.355423,534.479187 136.220749,531.669067 
	C136.080887,528.750549 138.019836,528.080872 140.366928,527.770020 
	C143.336258,527.376770 146.293671,526.894531 149.260178,526.478943 
	C152.365845,526.043884 153.845810,524.489746 153.839005,521.148010 
	C153.763641,484.164185 153.758896,447.180145 153.810867,410.196289 
	C153.815399,406.978180 152.243027,405.739655 149.366806,405.377960 
	C146.398560,405.004700 143.437103,404.567871 140.483154,404.093689 
	C138.179916,403.723969 136.371170,402.946899 136.521408,399.997589 
	C136.679565,396.893005 138.657471,396.694458 140.991425,396.694336 
	C162.648697,396.693054 184.305984,396.678192 205.963257,396.660248 
	C215.792175,396.652100 225.624390,396.768066 235.448242,396.536163 
	C238.928223,396.453979 240.248184,397.512390 240.188599,401.027405 
	C240.047440,409.354309 240.133575,417.685760 240.194061,426.014923 
	C240.214493,428.828522 239.705292,430.887848 236.213821,431.027100 
	C233.086044,431.151855 231.691147,429.899414 231.294571,426.833954 
	C230.676758,422.058289 229.688583,417.331268 229.031067,412.559692 
	C228.652740,409.814209 227.394470,408.480377 224.548492,408.267883 
	C209.417542,407.138184 194.265579,407.238678 179.111252,407.261200 
	C176.364761,407.265289 175.186035,408.381927 175.191559,411.123047 
	C175.221802,426.116333 175.202240,441.109772 175.172501,456.103058 
	C175.167557,458.596405 176.282028,459.730988 178.805786,459.715546 
	C188.134735,459.658539 197.464203,459.643219 206.793259,459.673004 
	C209.253601,459.680847 210.401443,458.464478 210.824402,456.166565 
	C211.396408,453.058899 212.245300,449.995117 212.681198,446.871460 
	C213.143555,443.558136 215.202408,442.915771 218.008286,443.063568 
	C220.978500,443.220062 221.358459,445.183014 221.349976,447.577606 
	C221.309265,459.072479 221.298294,470.567596 221.313721,482.062531 
	C221.316940,484.459198 221.004227,486.367340 217.901031,486.374054 
	C215.186829,486.379883 212.779556,486.239105 212.654465,482.687531 
	C212.648621,482.521698 212.628265,482.353973 212.592819,482.191895 
	C210.000137,470.339172 209.999954,470.339386 197.956406,470.345642 
	C192.125580,470.348663 186.288986,470.509430 180.465988,470.297211 
	C176.645264,470.157959 175.077072,471.456940 175.118958,475.434692 
	C175.275116,490.259979 175.249817,505.088043 175.164673,519.914307 
	C175.145370,523.274902 176.291931,524.726440 179.809006,524.674622 
	C196.616364,524.426880 213.439026,525.185364 230.227615,523.642761 
	C233.419479,523.349426 235.013260,521.981934 235.675095,518.937561 
	C236.911041,513.252441 238.469910,507.634857 239.605499,501.931610 
	C240.261230,498.638275 241.953354,497.487122 245.166458,497.744965 
	C248.703354,498.028839 248.360794,500.492676 248.271820,502.831360 
	C247.930176,511.813385 247.397049,520.791443 247.250443,529.776062 
	C247.177429,534.250610 245.142456,535.305664 241.021957,535.289429 
	C209.536407,535.165466 178.050140,535.224792 146.076309,535.226318 
z"/>
<path fill="#000000" opacity="1.000000" stroke="none" 
	d="
M525.903015,475.007477 
	C525.831360,470.514038 525.963989,466.502411 525.643433,462.527344 
	C525.030762,454.930878 520.077942,449.935669 512.524963,449.239899 
	C506.521210,448.686829 500.584991,449.464539 494.643341,450.421387 
	C490.015381,451.166656 488.231445,453.463623 488.273132,458.178558 
	C488.429199,475.829987 488.298950,493.483917 488.276917,511.136932 
	C488.274200,513.301941 488.276825,515.466919 488.277100,517.631897 
	C488.278564,528.624451 487.577820,526.796753 497.121033,528.767700 
	C499.444794,529.247620 501.382507,529.913635 501.187408,532.786804 
	C500.980591,535.832581 498.632080,535.959045 496.448853,535.974731 
	C485.291534,536.054810 474.133575,536.062195 462.975861,536.074524 
	C460.872559,536.076843 458.932953,535.838989 458.696960,533.056274 
	C458.464661,530.316833 459.868439,529.253967 462.355591,528.697388 
	C469.756897,527.041077 469.746948,528.565491 469.737793,518.726746 
	C469.717651,497.076752 469.571564,475.424713 469.849213,453.778290 
	C469.916260,448.549286 468.778015,445.399292 463.112030,445.176361 
	C462.462219,445.150818 461.811981,444.904358 461.179901,444.703735 
	C459.303497,444.108276 458.629364,442.765961 458.753357,440.863342 
	C458.894012,438.705811 460.306488,438.003967 462.126251,437.993011 
	C469.452209,437.948914 476.778717,437.967438 484.104828,438.006409 
	C485.761230,438.015198 487.019226,438.799683 487.425903,440.489349 
	C488.398804,444.531616 490.847351,443.679810 493.503723,442.426788 
	C499.858917,439.428955 506.495850,437.280792 513.407593,436.013580 
	C530.594971,432.862305 542.774109,441.956146 544.196655,459.336365 
	C545.842896,479.449005 544.669800,499.615540 544.791626,519.755859 
	C544.823975,525.102539 545.950684,528.437378 551.817688,528.765442 
	C554.412231,528.910522 556.445801,529.932129 556.086853,533.050903 
	C555.742615,536.041992 553.404907,536.018188 551.191528,536.023804 
	C540.366699,536.051453 529.541748,536.090698 518.717163,536.050903 
	C516.635681,536.043213 514.139526,536.425781 513.729614,533.278137 
	C513.332275,530.226257 515.149658,529.132263 517.764648,528.716553 
	C518.583984,528.586304 519.383972,528.158752 520.191895,528.161438 
	C525.193115,528.177917 525.975403,525.291626 525.923828,520.969849 
	C525.742798,505.817230 525.883850,490.660797 525.903015,475.007477 
z"/>
<path fill="#000000" opacity="1.000000" stroke="none" 
	d="
M648.628174,504.108215 
	C645.573669,488.189911 645.492554,472.824066 651.844299,458.062469 
	C658.184631,443.327393 672.049805,434.921478 688.121948,435.522125 
	C692.944397,435.702362 697.841187,435.410004 702.575623,436.152527 
	C719.390442,438.789703 729.691528,448.907593 733.876831,465.141479 
	C737.738159,480.118652 737.631165,495.244354 732.868958,509.982941 
	C727.899475,525.363037 716.998291,534.284912 700.894409,536.374573 
	C684.545044,538.495972 669.128723,536.940369 657.479370,523.382874 
	C652.828735,517.970459 650.386414,511.387299 648.628174,504.108215 
M666.355225,484.543274 
	C666.747681,493.348206 666.999634,502.168304 669.454102,510.730927 
	C672.513672,521.404419 678.366089,526.307739 689.283325,527.314636 
	C699.279541,528.236572 707.963013,523.833862 711.788879,514.277588 
	C719.121460,495.962341 718.851013,477.130981 712.380005,458.688477 
	C708.669739,448.114380 700.364929,444.296814 687.285461,445.208008 
	C678.253357,445.837250 672.102600,451.675873 669.196472,461.908813 
	C667.173340,469.032227 667.100586,476.356262 666.355225,484.543274 
z"/>
<path fill="#000000" opacity="1.000000" stroke="none" 
	d="
M416.471436,486.803223 
	C408.539917,486.690491 401.061371,486.583344 393.582428,486.531860 
	C391.505585,486.517548 390.213623,487.569061 389.607635,489.628113 
	C385.513275,503.541046 397.301605,522.779480 411.367584,524.478455 
	C420.324585,525.560303 429.306427,524.719238 438.206604,523.108459 
	C440.240051,522.740540 443.101837,521.027588 444.170624,524.310486 
	C445.182098,527.417297 443.658569,529.693665 440.589386,531.035889 
	C424.508606,538.068481 408.151123,539.736694 391.564056,533.154968 
	C382.488770,529.553894 376.695618,522.484253 373.762878,513.348022 
	C368.053619,495.562134 367.796844,477.576721 373.534119,459.771454 
	C378.562378,444.166626 392.235138,435.101257 408.693909,435.516602 
	C415.362701,435.684875 421.959351,435.582520 428.301971,438.336365 
	C439.782837,443.321289 444.724304,452.911224 447.018066,464.345764 
	C448.197510,470.225433 448.446472,476.226532 448.357483,482.246338 
	C448.315063,485.114807 447.539734,486.297638 444.404388,486.507721 
	C435.240265,487.121796 426.083679,486.785614 416.471436,486.803223 
M390.274261,468.777191 
	C389.835602,476.519714 389.925629,476.748169 395.308258,476.782898 
	C404.959930,476.845184 414.612823,476.738892 424.264160,476.824554 
	C427.417542,476.852509 428.833252,475.646515 428.744995,472.408752 
	C428.598969,467.050323 427.820343,461.808075 426.214569,456.708893 
	C424.330719,450.726654 420.624756,446.367065 414.202148,445.374115 
	C407.031586,444.265472 400.562653,445.821564 396.076630,452.135651 
	C392.732300,456.842804 390.942841,462.166504 390.274261,468.777191 
z"/>
<path fill="#000000" opacity="1.000000" stroke="none" 
	d="
M801.691650,398.193817 
	C792.023071,394.371368 786.578369,397.587494 785.007690,407.296570 
	C783.612122,415.923340 784.114746,424.578796 783.985779,433.233673 
	C783.934082,436.702606 785.403137,437.968750 788.781860,437.885345 
	C794.110962,437.753754 799.449524,438.009521 804.779053,437.885773 
	C808.739624,437.793854 809.348083,439.957733 809.396790,443.283356 
	C809.447937,446.772186 808.024475,448.096588 804.677185,448.050934 
	C799.345459,447.978210 794.009460,448.166046 788.679260,448.053253 
	C785.248901,447.980652 783.910217,449.473572 783.921509,452.835663 
	C783.999146,476.000946 784.017822,499.166504 784.003113,522.331970 
	C784.001221,525.248413 785.222656,526.392822 788.149902,526.663025 
	C792.452209,527.060120 796.703308,527.993591 800.985596,528.635925 
	C803.087219,528.951294 804.358521,529.868896 804.269409,532.195374 
	C804.174561,534.672058 802.599609,535.176941 800.551453,535.178467 
	C785.552185,535.189575 770.552856,535.211731 755.553589,535.218140 
	C753.582825,535.218933 751.880676,534.867065 751.724670,532.339172 
	C751.588501,530.131958 752.614807,528.893982 754.661804,528.350525 
	C754.822693,528.307800 754.981873,528.258118 755.140320,528.206848 
	C765.679749,524.797241 765.676758,524.797241 765.668701,513.580322 
	C765.654480,493.747711 765.532593,473.914032 765.716125,454.083221 
	C765.758545,449.496918 764.215332,447.619568 759.660645,447.998688 
	C757.345642,448.191406 754.997009,448.031281 752.665710,447.960083 
	C750.870544,447.905212 749.331055,447.393219 749.130920,445.239502 
	C748.940247,443.187958 749.608765,441.571136 751.728027,440.979980 
	C754.133789,440.308868 756.550354,439.558533 759.013733,439.237213 
	C764.017639,438.584442 766.075989,436.201233 765.772827,430.916931 
	C765.201782,420.962860 766.965820,411.315613 771.689758,402.410645 
	C780.416138,385.961121 796.497925,385.013214 810.547974,388.121582 
	C812.691101,388.595703 813.323242,390.242371 813.307800,392.293671 
	C813.271423,397.126495 813.296631,401.959778 813.292664,406.792877 
	C813.291138,408.699005 813.206360,410.598358 810.727905,410.927948 
	C808.411987,411.235931 806.975098,410.108459 806.077698,408.013489 
	C804.709290,404.819031 804.248413,401.236389 801.691650,398.193817 
z"/>
<path fill="#000000" opacity="1.000000" stroke="none" 
	d="
M303.148132,439.457703 
	C303.567780,443.263092 301.391998,443.873444 298.645020,444.402985 
	C288.810791,446.298798 288.761597,446.405609 292.552643,455.522797 
	C298.816650,470.587402 305.145386,485.625366 311.519928,500.643524 
	C312.536316,503.038147 313.280884,505.640717 315.726654,508.036743 
	C318.338318,501.775879 320.873474,495.877045 323.267853,489.921539 
	C328.358734,477.259064 333.284668,464.529388 338.477234,451.909149 
	C340.147095,447.850739 339.584961,445.617401 334.882690,445.178253 
	C333.068176,445.008759 331.288605,444.489532 329.483521,444.186981 
	C327.433990,443.843506 326.050354,442.854370 326.054749,440.621277 
	C326.059540,438.189850 327.695892,437.595856 329.745300,437.578125 
	C339.713348,437.491882 349.681458,437.411377 359.649445,437.321381 
	C361.351379,437.306030 362.624359,437.899384 362.854279,439.737976 
	C363.105682,441.748047 362.510529,443.888641 360.422607,444.043304 
	C353.220581,444.576874 351.668488,450.158936 349.489197,455.393951 
	C338.870300,480.901978 328.196594,506.387238 317.536407,531.878052 
	C316.516113,534.317749 315.800323,536.907349 312.348877,537.173035 
	C308.579102,537.463135 306.218384,536.408508 304.612122,532.619080 
	C294.153595,507.945679 283.480042,483.363373 272.870239,458.754120 
	C271.816284,456.309418 270.525024,453.948273 269.685486,451.434296 
	C268.460571,447.766418 266.270447,445.561829 262.344299,444.885742 
	C259.886841,444.462646 257.247375,443.683624 257.775452,440.175385 
	C258.315460,436.587463 261.247101,437.589172 263.315735,437.638885 
	C275.132782,437.922760 286.940918,436.357758 298.757843,437.506317 
	C300.343201,437.660431 302.194672,436.988342 303.148132,439.457703 
z"/>
<path fill="#000000" opacity="1.000000" stroke="none" 
	d="
M614.521240,517.334351 
	C617.056702,506.717163 612.948853,499.264557 602.347351,495.141205 
	C596.146362,492.729401 589.778076,490.748291 583.571960,488.348846 
	C568.535767,482.535583 564.767517,470.542725 567.101257,456.934387 
	C569.334839,443.909607 580.811829,435.428680 594.548401,435.506256 
	C603.378174,435.556122 612.170715,435.762604 620.897766,437.404724 
	C624.272705,438.039703 625.795776,439.346191 625.541199,443.005157 
	C625.218323,447.646027 625.448242,452.325500 625.444946,456.988342 
	C625.443909,458.475708 625.740967,460.150299 623.782959,460.682373 
	C621.790710,461.223816 620.104614,460.629242 619.143311,458.741455 
	C618.391602,457.265381 617.708984,455.721313 617.252808,454.133545 
	C615.783997,449.020813 612.164307,446.537384 607.190247,445.653992 
	C602.895569,444.891266 598.519653,444.715302 594.259277,445.426727 
	C588.735168,446.349213 584.757263,449.593445 583.472351,455.214417 
	C582.142029,461.033752 583.665466,466.123352 588.541626,469.905243 
	C592.154785,472.707611 596.416748,474.152222 600.660034,475.669159 
	C605.984741,477.572723 611.410034,479.302704 616.509766,481.706177 
	C628.453674,487.335236 634.485779,498.606995 632.613464,510.954437 
	C630.420410,525.416992 622.222229,533.936829 608.369934,536.172729 
	C595.641235,538.227051 583.166870,536.811462 570.804749,533.546143 
	C568.284851,532.880493 566.580078,531.825134 566.622681,528.876282 
	C566.706848,523.048584 566.645386,517.218811 566.680420,511.390167 
	C566.690613,509.693329 566.734314,507.959839 569.068176,507.710022 
	C571.101013,507.492432 572.691772,507.976257 573.410217,510.121735 
	C573.673950,510.909241 574.044495,511.660461 574.352539,512.433716 
	C579.333069,524.935120 588.966064,529.880676 602.434753,527.003113 
	C607.986572,525.817017 612.439453,523.407288 614.521240,517.334351 
z"/>
<path fill="#000000" opacity="1.000000" stroke="none" 
	d="
M844.971313,418.453979 
	C845.090942,423.566986 845.288696,428.237640 845.132324,432.896423 
	C845.011658,436.488159 846.295837,438.120056 850.024475,437.978027 
	C854.183350,437.819641 858.356934,438.088013 862.520142,437.993896 
	C866.143677,437.911957 867.020508,439.864044 867.008789,443.043854 
	C866.996948,446.267426 865.962646,448.120514 862.411316,448.035919 
	C858.247681,447.936707 854.079224,448.058411 849.913452,448.022827 
	C846.949524,447.997467 845.176880,449.033203 845.187317,452.350525 
	C845.252502,473.180786 845.135010,494.012543 845.356445,514.840820 
	C845.425659,521.355286 849.423462,524.786316 856.011047,524.809265 
	C858.997925,524.819641 861.993713,524.542053 864.970703,524.246704 
	C866.897095,524.055542 869.206665,522.876953 869.967224,525.694641 
	C870.570801,527.930908 870.595276,530.292297 868.402954,532.076660 
	C861.781250,537.466614 842.437073,538.879089 835.277100,534.173096 
	C828.202454,529.523193 826.784058,522.079590 826.718750,514.409912 
	C826.555542,495.246613 826.706726,476.080780 826.665039,456.916107 
	C826.648621,449.359619 827.840027,447.576630 818.505188,448.036560 
	C816.501526,448.135284 814.315430,448.011993 813.943481,445.286377 
	C813.603394,442.794739 815.187927,441.270844 817.266541,441.052704 
	C826.156982,440.119843 829.709229,433.949005 832.313782,426.550140 
	C833.304688,423.735352 834.651428,421.014343 836.108765,418.402832 
	C838.147827,414.748871 841.656799,414.665131 844.971313,418.453979 
z"/>
<path fill="#000000" opacity="1.000000" stroke="none" 
	d="
M636.637207,324.607544 
	C629.994202,332.462097 624.662231,340.516571 624.039062,350.889343 
	C623.823608,354.476501 621.916870,356.245270 618.030579,355.301453 
	C616.107544,354.834442 614.067871,354.869904 612.094421,354.584351 
	C605.423889,353.619293 605.313232,353.352997 605.906006,346.784760 
	C606.354004,341.820526 606.620300,336.835083 606.797424,331.853027 
	C606.905212,328.823517 607.906616,326.874542 611.263428,327.625916 
	C618.013672,329.136749 622.224182,326.030243 625.565552,320.537415 
	C627.456299,317.429169 629.674805,314.388947 632.281921,311.873932 
	C638.627869,305.752167 640.247925,298.039307 640.656860,289.758484 
	C640.910828,284.615784 641.400085,279.481689 641.537354,274.337158 
	C641.644653,270.316925 643.404419,270.643311 646.377380,271.729919 
	C657.710999,275.872375 661.254883,284.756104 661.075562,295.741302 
	C660.986450,301.199036 660.112854,306.642548 659.631958,312.095856 
	C659.377380,314.982208 658.030762,316.707764 655.106445,315.361023 
	C646.252930,311.283722 641.640869,316.314819 637.716675,323.097076 
	C637.467773,323.527313 637.140930,323.912506 636.637207,324.607544 
z"/>
<path fill="#000000" opacity="1.000000" stroke="none" 
	d="
M459.593872,36.484627 
	C460.502960,38.258728 461.794922,39.499119 461.469299,41.634277 
	C457.783875,43.498787 454.105011,41.389404 450.483887,41.096367 
	C444.714142,40.629444 439.014526,39.343445 433.267395,38.529930 
	C430.300568,38.109978 427.392517,38.203560 424.430389,39.234226 
	C417.524567,41.637081 410.530365,43.794014 403.532257,45.919903 
	C400.465210,46.851608 398.106720,48.274708 397.335632,51.655716 
	C396.772552,54.124592 395.149811,55.342426 392.556824,54.868828 
	C387.929840,54.023743 383.258209,54.406086 378.613434,54.417904 
	C375.322540,54.426273 373.545013,53.302059 373.559540,49.876526 
	C373.561615,49.384270 373.405975,48.892200 373.332733,48.398651 
	C372.079315,39.952713 372.389282,39.076469 380.836517,39.812321 
	C394.387512,40.992760 405.564301,34.198925 417.507080,29.976416 
	C421.053223,28.722633 419.724731,24.374535 421.494873,21.470266 
	C425.373169,20.945934 429.097626,22.663317 432.927185,23.322603 
	C437.669159,24.138983 442.262604,25.999193 447.017273,26.516373 
	C453.380920,27.208570 457.405914,30.209476 459.593872,36.484627 
z"/>
<path fill="#000000" opacity="1.000000" stroke="none" 
	d="
M472.804016,348.093628 
	C478.544281,348.672485 483.830597,349.312805 489.134888,349.717194 
	C492.277252,349.956726 493.610413,351.089722 493.006653,354.464142 
	C491.747131,361.503723 490.738647,368.588715 489.667175,375.661102 
	C489.253174,378.393707 488.400024,380.636688 484.994263,380.092590 
	C477.229553,378.852081 469.378326,379.379547 461.575867,378.901184 
	C457.787170,378.668945 456.142334,377.574615 457.207306,373.340912 
	C458.867767,366.739899 460.304108,360.045929 461.224243,353.307861 
	C461.862610,348.633148 463.698486,346.765472 468.373352,347.847382 
	C469.649170,348.142639 471.026733,347.998383 472.804016,348.093628 
z"/>
<path fill="#000000" opacity="1.000000" stroke="none" 
	d="
M341.482635,154.098526 
	C340.166748,162.182724 338.762207,169.859024 337.592102,177.570877 
	C337.149078,180.490738 335.734314,181.526260 332.917755,181.365021 
	C324.795959,180.900101 316.667664,180.549438 308.544006,180.114273 
	C305.653717,179.959442 304.439941,178.718475 305.151703,175.559204 
	C306.865601,167.951843 308.306854,160.283081 309.860474,152.639572 
	C310.363861,150.163055 311.748840,148.883789 314.407288,149.116730 
	C322.187469,149.798447 329.974548,150.402115 337.752869,151.103500 
	C339.412781,151.253189 341.134308,151.562454 341.482635,154.098526 
z"/>
<path fill="#000000" opacity="1.000000" stroke="none" 
	d="
M493.587250,268.790894 
	C492.616425,275.280518 491.670258,281.355652 490.843323,287.446960 
	C490.465088,290.233215 489.163055,291.540009 486.234528,291.362366 
	C478.277100,290.879639 470.311340,290.535828 462.350220,290.111481 
	C459.051025,289.935638 457.613953,288.585358 458.437103,284.952789 
	C460.125671,277.501190 461.497711,269.977020 462.947693,262.472626 
	C463.452362,259.860626 464.898987,258.897339 467.536102,259.142517 
	C474.481445,259.788177 481.441315,260.276428 488.392029,260.866943 
	C494.602997,261.394562 495.093079,262.120483 493.587250,268.790894 
z"/>
<path fill="#000000" opacity="1.000000" stroke="none" 
	d="
M392.953857,172.137634 
	C393.788422,168.644058 396.180603,168.651443 398.580170,168.856247 
	C406.203644,169.506927 413.820496,170.235184 421.443512,170.891479 
	C423.744385,171.089569 424.775238,172.256332 424.409882,174.519272 
	C423.138306,182.394577 421.781219,190.256363 420.556183,198.138748 
	C420.099670,201.075989 418.162994,201.402008 415.815125,201.223846 
	C407.691681,200.607376 399.573761,199.908234 391.444397,199.385223 
	C388.411591,199.190109 387.876740,197.764862 388.431641,195.089401 
	C389.986267,187.593933 391.398865,180.069016 392.953857,172.137634 
z"/>
<path fill="#000000" opacity="1.000000" stroke="none" 
	d="
M637.261719,374.585266 
	C637.471069,373.320007 637.571411,372.493774 637.672974,371.667694 
	C638.562988,364.428162 642.573669,361.893158 649.666077,363.961914 
	C651.713318,364.559143 652.150391,365.992310 652.113708,367.760681 
	C651.965088,374.926117 651.272827,382.045929 650.250549,389.137299 
	C649.968079,391.096466 648.851013,391.898743 646.926147,392.184235 
	C638.152710,393.485626 636.587769,392.235504 636.661743,383.485596 
	C636.685608,380.664032 636.981689,377.844696 637.261719,374.585266 
z"/>
<path fill="#000000" opacity="1.000000" stroke="none" 
	d="
M351.405334,66.355164 
	C351.557159,73.579842 351.166443,74.008400 344.789459,74.101334 
	C343.294678,74.123116 341.799927,74.163132 340.305115,74.167397 
	C333.376007,74.187157 332.406281,73.046539 332.586395,66.007195 
	C332.695770,61.731991 334.262085,59.420784 338.894592,59.888126 
	C341.033539,60.103909 343.227081,60.131187 345.365540,59.926731 
	C349.919678,59.491314 351.864838,61.435936 351.405334,66.355164 
z"/>
<path fill="#000000" opacity="1.000000" stroke="none" 
	d="
M361.952637,14.858700 
	C364.427338,14.853921 366.416382,14.885824 368.404236,14.851468 
	C371.485229,14.798220 373.073273,16.434193 373.163239,19.359541 
	C373.253296,22.288231 371.714752,24.132509 368.689758,24.173140 
	C362.393768,24.257704 356.095276,24.230862 349.798737,24.163683 
	C347.222595,24.136198 345.862854,22.658188 345.750916,20.095812 
	C345.633911,17.416319 346.682861,15.444410 349.545502,15.248085 
	C353.509247,14.976241 357.491882,14.979963 361.952637,14.858700 
z"/>
</svg>